<svg width="113" height="30" viewBox="0 0 113 30" fill="none" xmlns="http://www.w3.org/2000/svg">
<path d="M52.5319 25.3354H50.377V6.97284H42V5H60.8786V6.97284H52.5319V25.3354Z" fill="white"/>
<path d="M65.5999 25.639C60.774 25.639 57.7085 22.6038 57.7085 17.8386C57.7085 13.2859 60.7437 10.0383 65.5695 10.0383C69.9705 10.0383 73.0967 12.5879 73.0967 17.0495C73.0967 17.5958 73.036 18.0511 72.9449 18.4457H59.7421C59.8635 21.8147 61.5935 23.8482 65.5695 23.8482C69.0903 23.8482 70.7293 22.5431 70.7293 20.3578V20.1454H72.8842V20.3578C72.8842 23.484 69.7884 25.639 65.5999 25.639ZM65.5392 11.8291C61.6542 11.8291 59.8938 13.8323 59.7421 17.1102H71.0631C71.0631 16.9585 71.0631 16.8067 71.0631 16.6549C71.0631 13.4984 69.0599 11.8291 65.5392 11.8291Z" fill="white"/>
<path d="M78.1099 25.3354H75.9549V10.3418H77.8974V15.0463H78.0492C78.5651 12.4968 80.6897 10.0383 84.423 10.0383C88.6418 10.0383 90.7361 13.0431 90.7361 16.5942V25.3354H88.5811V16.8978C88.5811 13.8019 87.0939 12.0112 83.6642 12.0112C80.022 12.0112 78.1099 14.2268 78.1099 18.0815V25.3354Z" fill="white"/>
<path d="M95.3355 25.3354H92.5735L100.981 15.1677V14.9856L92.5735 5H95.3355L102.741 13.6805H102.893L110.208 5H113L104.562 15.016V15.1677L113 25.3354H110.208L102.863 16.4728H102.681L95.3355 25.3354Z" fill="white"/>
<path d="M22.2679 30H6.87012L14.5684 22.3006L22.2679 30Z" fill="white"/>
<path d="M18.4356 4.9061L25.2009 11.6703L30 6.87012V24.2015L5.79853 0H23.3417L18.4356 4.9061Z" fill="white"/>
<path d="M7.80424 15.5364L0 23.3417V7.73212L7.80424 15.5364Z" fill="white"/>
</svg>
