<svg width="1600" height="900" viewBox="0 0 1600 900" xmlns="http://www.w3.org/2000/svg">
  <rect x="0" y="0" width="1600" height="900" fill="#3D1A5B"/>
  <polygon points="0.0,0.0 79.9,0.0 0.0,74.9" fill="#3D1A5B"/>
  <polygon points="79.9,0.0 79.3,118.3 0.0,74.9" fill="#4B2570"/>
  <polygon points="79.9,0.0 195.4,0.0 203.5,88.5" fill="#3D1A5B"/>
  <polygon points="79.9,0.0 203.5,88.5 79.3,118.3" fill="#4B2570"/>
  <polygon points="195.4,0.0 359.6,0.0 203.5,88.5" fill="#4B2570"/>
  <polygon points="359.6,0.0 370.9,150.8 203.5,88.5" fill="#4B2570"/>
  <polygon points="359.6,0.0 487.3,0.0 428.6,145.2" fill="#2E1345"/>
  <polygon points="359.6,0.0 428.6,145.2 370.9,150.8" fill="#4B2570"/>
  <polygon points="487.3,0.0 546.4,0.0 428.6,145.2" fill="#241033"/>
  <polygon points="546.4,0.0 596.4,116.2 428.6,145.2" fill="#3D1A5B"/>
  <polygon points="546.4,0.0 649.9,0.0 694.1,112.1" fill="#4B2570"/>
  <polygon points="546.4,0.0 694.1,112.1 596.4,116.2" fill="#2E1345"/>
  <polygon points="649.9,0.0 825.0,0.0 694.1,112.1" fill="#4B2570"/>
  <polygon points="825.0,0.0 793.2,92.4 694.1,112.1" fill="#4B2570"/>
  <polygon points="825.0,0.0 886.4,0.0 901.2,118.0" fill="#3D1A5B"/>
  <polygon points="825.0,0.0 901.2,118.0 793.2,92.4" fill="#4B2570"/>
  <polygon points="886.4,0.0 1056.1,0.0 901.2,118.0" fill="#5B3486"/>
  <polygon points="1056.1,0.0 1011.3,112.1 901.2,118.0" fill="#6B4499"/>
  <polygon points="1056.1,0.0 1110.7,0.0 1141.1,97.1" fill="#2E1345"/>
  <polygon points="1056.1,0.0 1141.1,97.1 1011.3,112.1" fill="#6B4499"/>
  <polygon points="1110.7,0.0 1244.1,0.0 1141.1,97.1" fill="#5B3486"/>
  <polygon points="1244.1,0.0 1248.1,138.8 1141.1,97.1" fill="#4B2570"/>
  <polygon points="1244.1,0.0 1379.5,0.0 1339.7,78.7" fill="#3D1A5B"/>
  <polygon points="1244.1,0.0 1339.7,78.7 1248.1,138.8" fill="#4B2570"/>
  <polygon points="1379.5,0.0 1514.1,0.0 1339.7,78.7" fill="#5B3486"/>
  <polygon points="1514.1,0.0 1451.0,83.8 1339.7,78.7" fill="#3D1A5B"/>
  <polygon points="1514.1,0.0 1600.0,0.0 1600.0,142.9" fill="#3D1A5B"/>
  <polygon points="1514.1,0.0 1600.0,142.9 1451.0,83.8" fill="#4B2570"/>
  <polygon points="0.0,74.9 79.3,118.3 143.5,250.2" fill="#6B4499"/>
  <polygon points="0.0,74.9 143.5,250.2 0.0,197.7" fill="#4B2570"/>
  <polygon points="79.3,118.3 203.5,88.5 143.5,250.2" fill="#5B3486"/>
  <polygon points="203.5,88.5 210.8,193.4 143.5,250.2" fill="#6B4499"/>
  <polygon points="203.5,88.5 370.9,150.8 345.0,262.6" fill="#241033"/>
  <polygon points="203.5,88.5 345.0,262.6 210.8,193.4" fill="#3D1A5B"/>
  <polygon points="370.9,150.8 428.6,145.2 345.0,262.6" fill="#4B2570"/>
  <polygon points="428.6,145.2 428.9,198.1 345.0,262.6" fill="#3D1A5B"/>
  <polygon points="428.6,145.2 596.4,116.2 552.8,192.6" fill="#2E1345"/>
  <polygon points="428.6,145.2 552.8,192.6 428.9,198.1" fill="#6B4499"/>
  <polygon points="596.4,116.2 694.1,112.1 552.8,192.6" fill="#3D1A5B"/>
  <polygon points="694.1,112.1 706.3,263.8 552.8,192.6" fill="#241033"/>
  <polygon points="694.1,112.1 793.2,92.4 796.7,208.1" fill="#4B2570"/>
  <polygon points="694.1,112.1 796.7,208.1 706.3,263.8" fill="#2E1345"/>
  <polygon points="793.2,92.4 901.2,118.0 796.7,208.1" fill="#2E1345"/>
  <polygon points="901.2,118.0 901.5,186.4 796.7,208.1" fill="#4B2570"/>
  <polygon points="901.2,118.0 1011.3,112.1 1045.1,258.4" fill="#5B3486"/>
  <polygon points="901.2,118.0 1045.1,258.4 901.5,186.4" fill="#3D1A5B"/>
  <polygon points="1011.3,112.1 1141.1,97.1 1045.1,258.4" fill="#5B3486"/>
  <polygon points="1141.1,97.1 1168.5,201.5 1045.1,258.4" fill="#3D1A5B"/>
  <polygon points="1141.1,97.1 1248.1,138.8 1218.3,187.6" fill="#2E1345"/>
  <polygon points="1141.1,97.1 1218.3,187.6 1168.5,201.5" fill="#2E1345"/>
  <polygon points="1248.1,138.8 1339.7,78.7 1218.3,187.6" fill="#4B2570"/>
  <polygon points="1339.7,78.7 1345.9,213.4 1218.3,187.6" fill="#2E1345"/>
  <polygon points="1339.7,78.7 1451.0,83.8 1520.2,234.1" fill="#2E1345"/>
  <polygon points="1339.7,78.7 1520.2,234.1 1345.9,213.4" fill="#241033"/>
  <polygon points="1451.0,83.8 1600.0,142.9 1520.2,234.1" fill="#241033"/>
  <polygon points="1600.0,142.9 1600.0,204.9 1520.2,234.1" fill="#241033"/>
  <polygon points="0.0,197.7 143.5,250.2 0.0,371.1" fill="#241033"/>
  <polygon points="143.5,250.2 99.6,356.4 0.0,371.1" fill="#3D1A5B"/>
  <polygon points="143.5,250.2 210.8,193.4 219.2,346.7" fill="#241033"/>
  <polygon points="143.5,250.2 219.2,346.7 99.6,356.4" fill="#4B2570"/>
  <polygon points="210.8,193.4 345.0,262.6 219.2,346.7" fill="#3D1A5B"/>
  <polygon points="345.0,262.6 359.4,347.7 219.2,346.7" fill="#2E1345"/>
  <polygon points="345.0,262.6 428.9,198.1 446.6,335.1" fill="#3D1A5B"/>
  <polygon points="345.0,262.6 446.6,335.1 359.4,347.7" fill="#4B2570"/>
  <polygon points="428.9,198.1 552.8,192.6 446.6,335.1" fill="#4B2570"/>
  <polygon points="552.8,192.6 611.1,352.4 446.6,335.1" fill="#3D1A5B"/>
  <polygon points="552.8,192.6 706.3,263.8 691.5,302.6" fill="#3D1A5B"/>
  <polygon points="552.8,192.6 691.5,302.6 611.1,352.4" fill="#3D1A5B"/>
  <polygon points="706.3,263.8 796.7,208.1 691.5,302.6" fill="#3D1A5B"/>
  <polygon points="796.7,208.1 766.2,372.5 691.5,302.6" fill="#5B3486"/>
  <polygon points="796.7,208.1 901.5,186.4 893.7,317.1" fill="#6B4499"/>
  <polygon points="796.7,208.1 893.7,317.1 766.2,372.5" fill="#5B3486"/>
  <polygon points="901.5,186.4 1045.1,258.4 893.7,317.1" fill="#6B4499"/>
  <polygon points="1045.1,258.4 994.0,333.1 893.7,317.1" fill="#4B2570"/>
  <polygon points="1045.1,258.4 1168.5,201.5 1165.8,338.5" fill="#3D1A5B"/>
  <polygon points="1045.1,258.4 1165.8,338.5 994.0,333.1" fill="#5B3486"/>
  <polygon points="1168.5,201.5 1218.3,187.6 1165.8,338.5" fill="#6B4499"/>
  <polygon points="1218.3,187.6 1269.9,357.4 1165.8,338.5" fill="#241033"/>
  <polygon points="1218.3,187.6 1345.9,213.4 1374.8,327.2" fill="#2E1345"/>
  <polygon points="1218.3,187.6 1374.8,327.2 1269.9,357.4" fill="#3D1A5B"/>
  <polygon points="1345.9,213.4 1520.2,234.1 1374.8,327.2" fill="#6B4499"/>
  <polygon points="1520.2,234.1 1465.9,320.2 1374.8,327.2" fill="#3D1A5B"/>
  <polygon points="1520.2,234.1 1600.0,204.9 1600.0,330.3" fill="#6B4499"/>
  <polygon points="1520.2,234.1 1600.0,330.3 1465.9,320.2" fill="#4B2570"/>
  <polygon points="0.0,371.1 99.6,356.4 127.7,418.1" fill="#5B3486"/>
  <polygon points="0.0,371.1 127.7,418.1 0.0,487.6" fill="#241033"/>
  <polygon points="99.6,356.4 219.2,346.7 127.7,418.1" fill="#5B3486"/>
  <polygon points="219.2,346.7 248.0,468.0 127.7,418.1" fill="#4B2570"/>
  <polygon points="219.2,346.7 359.4,347.7 332.3,464.3" fill="#4B2570"/>
  <polygon points="219.2,346.7 332.3,464.3 248.0,468.0" fill="#2E1345"/>
  <polygon points="359.4,347.7 446.6,335.1 332.3,464.3" fill="#5B3486"/>
  <polygon points="446.6,335.1 467.7,451.0 332.3,464.3" fill="#241033"/>
  <polygon points="446.6,335.1 611.1,352.4 567.4,479.0" fill="#4B2570"/>
  <polygon points="446.6,335.1 567.4,479.0 467.7,451.0" fill="#3D1A5B"/>
  <polygon points="611.1,352.4 691.5,302.6 567.4,479.0" fill="#2E1345"/>
  <polygon points="691.5,302.6 715.6,475.7 567.4,479.0" fill="#5B3486"/>
  <polygon points="691.5,302.6 766.2,372.5 779.8,466.6" fill="#3D1A5B"/>
  <polygon points="691.5,302.6 779.8,466.6 715.6,475.7" fill="#3D1A5B"/>
  <polygon points="766.2,372.5 893.7,317.1 779.8,466.6" fill="#5B3486"/>
  <polygon points="893.7,317.1 922.1,480.8 779.8,466.6" fill="#5B3486"/>
  <polygon points="893.7,317.1 994.0,333.1 1011.7,470.7" fill="#3D1A5B"/>
  <polygon points="893.7,317.1 1011.7,470.7 922.1,480.8" fill="#3D1A5B"/>
  <polygon points="994.0,333.1 1165.8,338.5 1011.7,470.7" fill="#5B3486"/>
  <polygon points="1165.8,338.5 1158.5,438.5 1011.7,470.7" fill="#6B4499"/>
  <polygon points="1165.8,338.5 1269.9,357.4 1264.4,455.4" fill="#2E1345"/>
  <polygon points="1165.8,338.5 1264.4,455.4 1158.5,438.5" fill="#241033"/>
  <polygon points="1269.9,357.4 1374.8,327.2 1264.4,455.4" fill="#4B2570"/>
  <polygon points="1374.8,327.2 1346.2,468.6 1264.4,455.4" fill="#4B2570"/>
  <polygon points="1374.8,327.2 1465.9,320.2 1507.1,413.4" fill="#241033"/>
  <polygon points="1374.8,327.2 1507.1,413.4 1346.2,468.6" fill="#2E1345"/>
  <polygon points="1465.9,320.2 1600.0,330.3 1507.1,413.4" fill="#241033"/>
  <polygon points="1600.0,330.3 1600.0,479.7 1507.1,413.4" fill="#241033"/>
  <polygon points="0.0,487.6 127.7,418.1 0.0,577.2" fill="#241033"/>
  <polygon points="127.7,418.1 126.4,570.4 0.0,577.2" fill="#4B2570"/>
  <polygon points="127.7,418.1 248.0,468.0 196.8,596.4" fill="#241033"/>
  <polygon points="127.7,418.1 196.8,596.4 126.4,570.4" fill="#4B2570"/>
  <polygon points="248.0,468.0 332.3,464.3 196.8,596.4" fill="#5B3486"/>
  <polygon points="332.3,464.3 327.4,586.1 196.8,596.4" fill="#5B3486"/>
  <polygon points="332.3,464.3 467.7,451.0 420.0,537.9" fill="#4B2570"/>
  <polygon points="332.3,464.3 420.0,537.9 327.4,586.1" fill="#2E1345"/>
  <polygon points="467.7,451.0 567.4,479.0 420.0,537.9" fill="#2E1345"/>
  <polygon points="567.4,479.0 587.1,551.2 420.0,537.9" fill="#4B2570"/>
  <polygon points="567.4,479.0 715.6,475.7 681.0,536.8" fill="#5B3486"/>
  <polygon points="567.4,479.0 681.0,536.8 587.1,551.2" fill="#4B2570"/>
  <polygon points="715.6,475.7 779.8,466.6 681.0,536.8" fill="#2E1345"/>
  <polygon points="779.8,466.6 769.5,596.1 681.0,536.8" fill="#241033"/>
  <polygon points="779.8,466.6 922.1,480.8 913.9,529.2" fill="#241033"/>
  <polygon points="779.8,466.6 913.9,529.2 769.5,596.1" fill="#2E1345"/>
  <polygon points="922.1,480.8 1011.7,470.7 913.9,529.2" fill="#4B2570"/>
  <polygon points="1011.7,470.7 1032.8,545.2 913.9,529.2" fill="#3D1A5B"/>
  <polygon points="1011.7,470.7 1158.5,438.5 1127.9,600.5" fill="#2E1345"/>
  <polygon points="1011.7,470.7 1127.9,600.5 1032.8,545.2" fill="#3D1A5B"/>
  <polygon points="1158.5,438.5 1264.4,455.4 1127.9,600.5" fill="#4B2570"/>
  <polygon points="1264.4,455.4 1281.0,523.7 1127.9,600.5" fill="#3D1A5B"/>
  <polygon points="1264.4,455.4 1346.2,468.6 1366.8,594.5" fill="#3D1A5B"/>
  <polygon points="1264.4,455.4 1366.8,594.5 1281.0,523.7" fill="#4B2570"/>
  <polygon points="1346.2,468.6 1507.1,413.4 1366.8,594.5" fill="#6B4499"/>
  <polygon points="1507.1,413.4 1484.9,540.7 1366.8,594.5" fill="#241033"/>
  <polygon points="1507.1,413.4 1600.0,479.7 1600.0,598.5" fill="#3D1A5B"/>
  <polygon points="1507.1,413.4 1600.0,598.5 1484.9,540.7" fill="#3D1A5B"/>
  <polygon points="0.0,577.2 126.4,570.4 78.0,701.3" fill="#2E1345"/>
  <polygon points="0.0,577.2 78.0,701.3 0.0,668.0" fill="#6B4499"/>
  <polygon points="126.4,570.4 196.8,596.4 78.0,701.3" fill="#3D1A5B"/>
  <polygon points="196.8,596.4 251.4,685.4 78.0,701.3" fill="#5B3486"/>
  <polygon points="196.8,596.4 327.4,586.1 329.3,651.7" fill="#3D1A5B"/>
  <polygon points="196.8,596.4 329.3,651.7 251.4,685.4" fill="#4B2570"/>
  <polygon points="327.4,586.1 420.0,537.9 329.3,651.7" fill="#3D1A5B"/>
  <polygon points="420.0,537.9 458.4,686.0 329.3,651.7" fill="#3D1A5B"/>
  <polygon points="420.0,537.9 587.1,551.2 552.8,676.8" fill="#4B2570"/>
  <polygon points="420.0,537.9 552.8,676.8 458.4,686.0" fill="#5B3486"/>
  <polygon points="587.1,551.2 681.0,536.8 552.8,676.8" fill="#4B2570"/>
  <polygon points="681.0,536.8 688.6,644.6 552.8,676.8" fill="#6B4499"/>
  <polygon points="681.0,536.8 769.5,596.1 769.9,670.6" fill="#5B3486"/>
  <polygon points="681.0,536.8 769.9,670.6 688.6,644.6" fill="#2E1345"/>
  <polygon points="769.5,596.1 913.9,529.2 769.9,670.6" fill="#3D1A5B"/>
  <polygon points="913.9,529.2 906.2,705.5 769.9,670.6" fill="#4B2570"/>
  <polygon points="913.9,529.2 1032.8,545.2 996.8,664.2" fill="#2E1345"/>
  <polygon points="913.9,529.2 996.8,664.2 906.2,705.5" fill="#3D1A5B"/>
  <polygon points="1032.8,545.2 1127.9,600.5 996.8,664.2" fill="#3D1A5B"/>
  <polygon points="1127.9,600.5 1153.7,685.3 996.8,664.2" fill="#241033"/>
  <polygon points="1127.9,600.5 1281.0,523.7 1267.3,707.6" fill="#2E1345"/>
  <polygon points="1127.9,600.5 1267.3,707.6 1153.7,685.3" fill="#4B2570"/>
  <polygon points="1281.0,523.7 1366.8,594.5 1267.3,707.6" fill="#3D1A5B"/>
  <polygon points="1366.8,594.5 1375.4,661.5 1267.3,707.6" fill="#3D1A5B"/>
  <polygon points="1366.8,594.5 1484.9,540.7 1461.5,674.2" fill="#6B4499"/>
  <polygon points="1366.8,594.5 1461.5,674.2 1375.4,661.5" fill="#6B4499"/>
  <polygon points="1484.9,540.7 1600.0,598.5 1461.5,674.2" fill="#4B2570"/>
  <polygon points="1600.0,598.5 1600.0,654.2 1461.5,674.2" fill="#5B3486"/>
  <polygon points="0.0,668.0 78.0,701.3 0.0,751.3" fill="#6B4499"/>
  <polygon points="78.0,701.3 99.9,792.7 0.0,751.3" fill="#6B4499"/>
  <polygon points="78.0,701.3 251.4,685.4 214.8,768.3" fill="#3D1A5B"/>
  <polygon points="78.0,701.3 214.8,768.3 99.9,792.7" fill="#6B4499"/>
  <polygon points="251.4,685.4 329.3,651.7 214.8,768.3" fill="#241033"/>
  <polygon points="329.3,651.7 338.0,806.4 214.8,768.3" fill="#241033"/>
  <polygon points="329.3,651.7 458.4,686.0 458.2,750.2" fill="#6B4499"/>
  <polygon points="329.3,651.7 458.2,750.2 338.0,806.4" fill="#4B2570"/>
  <polygon points="458.4,686.0 552.8,676.8 458.2,750.2" fill="#241033"/>
  <polygon points="552.8,676.8 594.4,782.6 458.2,750.2" fill="#3D1A5B"/>
  <polygon points="552.8,676.8 688.6,644.6 686.7,780.9" fill="#4B2570"/>
  <polygon points="552.8,676.8 686.7,780.9 594.4,782.6" fill="#3D1A5B"/>
  <polygon points="688.6,644.6 769.9,670.6 686.7,780.9" fill="#3D1A5B"/>
  <polygon points="769.9,670.6 769.2,801.1 686.7,780.9" fill="#6B4499"/>
  <polygon points="769.9,670.6 906.2,705.5 903.7,815.2" fill="#3D1A5B"/>
  <polygon points="769.9,670.6 903.7,815.2 769.2,801.1" fill="#241033"/>
  <polygon points="906.2,705.5 996.8,664.2 903.7,815.2" fill="#3D1A5B"/>
  <polygon points="996.8,664.2 1019.7,785.1 903.7,815.2" fill="#241033"/>
  <polygon points="996.8,664.2 1153.7,685.3 1111.2,795.9" fill="#6B4499"/>
  <polygon points="996.8,664.2 1111.2,795.9 1019.7,785.1" fill="#4B2570"/>
  <polygon points="1153.7,685.3 1267.3,707.6 1111.2,795.9" fill="#3D1A5B"/>
  <polygon points="1267.3,707.6 1274.0,784.0 1111.2,795.9" fill="#2E1345"/>
  <polygon points="1267.3,707.6 1375.4,661.5 1358.2,819.8" fill="#6B4499"/>
  <polygon points="1267.3,707.6 1358.2,819.8 1274.0,784.0" fill="#3D1A5B"/>
  <polygon points="1375.4,661.5 1461.5,674.2 1358.2,819.8" fill="#4B2570"/>
  <polygon points="1461.5,674.2 1515.3,822.0 1358.2,819.8" fill="#3D1A5B"/>
  <polygon points="1461.5,674.2 1600.0,654.2 1600.0,775.4" fill="#3D1A5B"/>
  <polygon points="1461.5,674.2 1600.0,775.4 1515.3,822.0" fill="#3D1A5B"/>
  <polygon points="0.0,751.3 99.9,792.7 152.0,900.0" fill="#4B2570"/>
  <polygon points="0.0,751.3 152.0,900.0 0.0,900.0" fill="#241033"/>
  <polygon points="99.9,792.7 214.8,768.3 152.0,900.0" fill="#5B3486"/>
  <polygon points="214.8,768.3 264.9,900.0 152.0,900.0" fill="#4B2570"/>
  <polygon points="214.8,768.3 338.0,806.4 321.7,900.0" fill="#4B2570"/>
  <polygon points="214.8,768.3 321.7,900.0 264.9,900.0" fill="#2E1345"/>
  <polygon points="338.0,806.4 458.2,750.2 321.7,900.0" fill="#5B3486"/>
  <polygon points="458.2,750.2 438.8,900.0 321.7,900.0" fill="#3D1A5B"/>
  <polygon points="458.2,750.2 594.4,782.6 601.4,900.0" fill="#4B2570"/>
  <polygon points="458.2,750.2 601.4,900.0 438.8,900.0" fill="#3D1A5B"/>
  <polygon points="594.4,782.6 686.7,780.9 601.4,900.0" fill="#3D1A5B"/>
  <polygon points="686.7,780.9 721.2,900.0 601.4,900.0" fill="#3D1A5B"/>
  <polygon points="686.7,780.9 769.2,801.1 815.4,900.0" fill="#4B2570"/>
  <polygon points="686.7,780.9 815.4,900.0 721.2,900.0" fill="#241033"/>
  <polygon points="769.2,801.1 903.7,815.2 815.4,900.0" fill="#4B2570"/>
  <polygon points="903.7,815.2 949.2,900.0 815.4,900.0" fill="#3D1A5B"/>
  <polygon points="903.7,815.2 1019.7,785.1 1008.3,900.0" fill="#3D1A5B"/>
  <polygon points="903.7,815.2 1008.3,900.0 949.2,900.0" fill="#3D1A5B"/>
  <polygon points="1019.7,785.1 1111.2,795.9 1008.3,900.0" fill="#3D1A5B"/>
  <polygon points="1111.2,795.9 1172.1,900.0 1008.3,900.0" fill="#2E1345"/>
  <polygon points="1111.2,795.9 1274.0,784.0 1289.4,900.0" fill="#241033"/>
  <polygon points="1111.2,795.9 1289.4,900.0 1172.1,900.0" fill="#3D1A5B"/>
  <polygon points="1274.0,784.0 1358.2,819.8 1289.4,900.0" fill="#4B2570"/>
  <polygon points="1358.2,819.8 1365.7,900.0 1289.4,900.0" fill="#4B2570"/>
  <polygon points="1358.2,819.8 1515.3,822.0 1472.3,900.0" fill="#241033"/>
  <polygon points="1358.2,819.8 1472.3,900.0 1365.7,900.0" fill="#241033"/>
  <polygon points="1515.3,822.0 1600.0,775.4 1472.3,900.0" fill="#3D1A5B"/>
  <polygon points="1600.0,775.4 1600.0,900.0 1472.3,900.0" fill="#3D1A5B"/>
</svg>
